<svg width="15" height="15" viewBox="0 0 15 15" fill="none" xmlns="http://www.w3.org/2000/svg">
<path d="M7.3335 3.73975C9.30225 3.73975 10.9272 5.36475 10.9272 7.3335C10.9272 9.3335 9.30225 10.9272 7.3335 10.9272C5.3335 10.9272 3.73975 9.3335 3.73975 7.3335C3.73975 5.36475 5.3335 3.73975 7.3335 3.73975ZM7.3335 9.67725C8.61475 9.67725 9.646 8.646 9.646 7.3335C9.646 6.05225 8.61475 5.021 7.3335 5.021C6.021 5.021 4.98975 6.05225 4.98975 7.3335C4.98975 8.646 6.05225 9.67725 7.3335 9.67725ZM11.896 3.61475C11.896 4.0835 11.521 4.4585 11.0522 4.4585C10.5835 4.4585 10.2085 4.0835 10.2085 3.61475C10.2085 3.146 10.5835 2.771 11.0522 2.771C11.521 2.771 11.896 3.146 11.896 3.61475ZM14.271 4.4585C14.3335 5.61475 14.3335 9.0835 14.271 10.2397C14.2085 11.3647 13.9585 12.3335 13.146 13.1772C12.3335 13.9897 11.3335 14.2397 10.2085 14.3022C9.05225 14.3647 5.5835 14.3647 4.42725 14.3022C3.30225 14.2397 2.3335 13.9897 1.48975 13.1772C0.677246 12.3335 0.427246 11.3647 0.364746 10.2397C0.302246 9.0835 0.302246 5.61475 0.364746 4.4585C0.427246 3.3335 0.677246 2.3335 1.48975 1.521C2.3335 0.708496 3.30225 0.458496 4.42725 0.395996C5.5835 0.333496 9.05225 0.333496 10.2085 0.395996C11.3335 0.458496 12.3335 0.708496 13.146 1.521C13.9585 2.3335 14.2085 3.3335 14.271 4.4585ZM12.771 11.4585C13.146 10.5522 13.0522 8.36475 13.0522 7.3335C13.0522 6.3335 13.146 4.146 12.771 3.2085C12.521 2.61475 12.0522 2.11475 11.4585 1.896C10.521 1.521 8.3335 1.61475 7.3335 1.61475C6.30225 1.61475 4.11475 1.521 3.2085 1.896C2.5835 2.146 2.11475 2.61475 1.86475 3.2085C1.48975 4.146 1.5835 6.3335 1.5835 7.3335C1.5835 8.36475 1.48975 10.5522 1.86475 11.4585C2.11475 12.0835 2.5835 12.5522 3.2085 12.8022C4.11475 13.1772 6.30225 13.0835 7.3335 13.0835C8.3335 13.0835 10.521 13.1772 11.4585 12.8022C12.0522 12.5522 12.5522 12.0835 12.771 11.4585Z" fill="#636183"/>
</svg>
