<svg width="15" height="15" viewBox="0 0 15 15" fill="none" xmlns="http://www.w3.org/2000/svg">
<path d="M13.3335 0.333496C13.8647 0.333496 14.3335 0.802246 14.3335 1.36475V13.3335C14.3335 13.896 13.8647 14.3335 13.3335 14.3335H1.30225C0.770996 14.3335 0.333496 13.896 0.333496 13.3335V1.36475C0.333496 0.802246 0.770996 0.333496 1.30225 0.333496H13.3335ZM4.55225 12.3335V5.67725H2.48975V12.3335H4.55225ZM3.521 4.73975C4.17725 4.73975 4.7085 4.2085 4.7085 3.55225C4.7085 2.896 4.17725 2.3335 3.521 2.3335C2.8335 2.3335 2.30225 2.896 2.30225 3.55225C2.30225 4.2085 2.8335 4.73975 3.521 4.73975ZM12.3335 12.3335V8.67725C12.3335 6.896 11.9272 5.48975 9.8335 5.48975C8.8335 5.48975 8.146 6.05225 7.86475 6.5835H7.8335V5.67725H5.86475V12.3335H7.92725V9.05225C7.92725 8.17725 8.0835 7.3335 9.17725 7.3335C10.2397 7.3335 10.2397 8.3335 10.2397 9.0835V12.3335H12.3335Z" fill="#636183"/>
</svg>
