<?xml version="1.0" encoding="UTF-8"?><svg id="Camada_1" xmlns="http://www.w3.org/2000/svg" viewBox="0 0 1180.12 464.05"><defs><style>.cls-1{fill:#645b9f;}.cls-2{fill:#938fc2;}</style></defs><path class="cls-1" d="m73.91,321.5c-22.69,0-41.75-6.21-57.17-18.62-4.77-3.82-7.16-8.22-7.16-13.22,0-4.41,1.74-8.35,5.23-11.84,3.49-3.49,7.99-5.23,13.49-5.23,4.48,0,8.52,1.4,12.12,4.19,8.88,6.98,20.05,10.46,33.49,10.46,5.29,0,10.39-1.21,15.31-3.63,4.77-2.28,7.16-5.8,7.16-10.58,0-2.72-1.14-5.05-3.41-6.99-2.28-1.95-5.56-3.82-9.86-5.62-4.3-1.8-9.16-3.62-14.6-5.45-5.95-2.05-12.03-4.37-18.23-6.94-6.21-2.57-12.03-5.73-17.46-9.47-5.44-3.75-9.82-8.32-13.16-13.71-3.34-5.4-5.01-11.84-5.01-19.33,0-15.64,6.2-27.98,18.62-37.01,10.65-7.71,24.16-11.57,40.54-11.57,8.52,0,17.27,1.23,26.27,3.69,8.99,2.46,16.83,6.11,23.52,10.96,5.29,3.89,7.93,8.48,7.93,13.77,0,4.41-1.75,8.35-5.23,11.84-3.49,3.49-7.95,5.23-13.38,5.23-4.19,0-8-1.17-11.46-3.52-3.75-2.57-8.17-4.5-13.27-5.78-5.1-1.28-9.9-1.93-14.38-1.93-5.51,0-10.35.92-14.54,2.75-3.97,1.84-5.95,5.1-5.95,9.8,0,2.2,1.01,4.13,3.03,5.78,2.02,1.65,5.03,3.3,9.03,4.96,4,1.65,8.57,3.36,13.71,5.12,6.09,2.06,12.35,4.43,18.78,7.1,6.42,2.68,12.46,5.99,18.12,9.91,5.65,3.93,10.24,8.72,13.77,14.38,3.52,5.66,5.29,12.45,5.29,20.38s-1.71,15.13-5.12,21.37c-3.41,6.24-8.06,11.51-13.93,15.81-5.88,4.3-12.47,7.53-19.77,9.69-7.31,2.17-14.74,3.25-22.31,3.25Z"/><path class="cls-1" d="m198.89,321.39c-5.36,0-10.04-1.56-14.04-4.68-4-3.12-6-7.18-6-12.17v-111.8h-18.29c-5.51,0-10.06-1.69-13.66-5.07-3.6-3.38-5.4-7.42-5.4-12.12s1.8-8.72,5.4-12.06c3.6-3.34,8.15-5.01,13.66-5.01h76.67c5.51,0,10.06,1.67,13.66,5.01,3.6,3.34,5.4,7.36,5.4,12.06s-1.8,8.74-5.4,12.12c-3.6,3.38-8.15,5.07-13.66,5.07h-18.29v111.8c0,4.99-2.02,9.05-6.06,12.17-4.04,3.12-8.7,4.68-13.99,4.68Z"/><path class="cls-1" d="m209.98,377.67l-6.93.06c-47.28.39-85.29,39.04-84.9,86.32l92.53-.77c127.93-1.07,230.77-105.64,229.71-233.56l-85.61.71c.67,80.65-64.16,146.57-144.81,147.24Z"/><path class="cls-1" d="m121.26,86.44l86.29-.82c80.65-.67,146.57,64.16,147.24,144.81l85.61-.71C439.33,101.79,334.76-1.06,206.83,0L34.69,1.44c.39,47.39,39.17,85.47,86.57,85Z"/><path class="cls-2" d="m542.46,321.5c-12.48,0-23.5-2.22-33.04-6.66-9.55-4.44-17.46-10.48-23.74-18.12-6.28-7.64-10.98-16.36-14.1-26.16-3.12-9.8-4.68-20.25-4.68-31.34s1.56-21.53,4.68-31.34c3.12-9.8,7.82-18.52,14.1-26.16,6.28-7.64,14.19-13.68,23.74-18.12,9.54-4.44,20.56-6.66,33.04-6.66s23.5,2.22,33.05,6.66c9.54,4.44,17.46,10.48,23.74,18.12,6.28,7.64,10.98,16.36,14.1,26.16,3.12,9.8,4.68,20.25,4.68,31.34s-1.56,21.53-4.68,31.34c-3.12,9.8-7.82,18.52-14.1,26.16-6.28,7.64-14.19,13.68-23.74,18.12-9.55,4.44-20.56,6.66-33.05,6.66Zm0-34.26c12.26,0,21.52-4.7,27.76-14.1,5.51-8.3,8.26-19.61,8.26-33.93s-2.75-25.7-8.26-33.93c-6.24-9.4-15.5-14.1-27.76-14.1s-21.63,4.7-27.87,14.1c-5.51,8.23-8.26,19.53-8.26,33.93s2.75,25.63,8.26,33.93c6.24,9.4,15.53,14.1,27.87,14.1Z"/><path class="cls-2" d="m708.52,321.39c-12.48,0-23.39-2.28-32.71-6.83-9.33-4.55-16.98-10.67-22.97-18.34-5.99-7.67-10.45-16.39-13.38-26.16-2.94-9.77-4.41-20.08-4.41-30.95s1.47-21.19,4.41-30.95c2.94-9.77,7.4-18.49,13.38-26.16,5.98-7.67,13.64-13.79,22.97-18.34,9.33-4.55,20.23-6.83,32.71-6.83,16.74,0,32.2,4.74,46.37,14.21,5.73,3.82,8.59,8.48,8.59,13.99,0,4.41-1.75,8.35-5.23,11.84-3.49,3.49-7.95,5.23-13.38,5.23-3.89,0-7.49-1.06-10.79-3.19-7.93-5.14-16.45-7.71-25.56-7.71-11.16,0-19.72,4.96-25.67,14.87-5.14,8.59-7.71,19.61-7.71,33.05s2.53,24.64,7.6,33.16c5.95,9.91,14.54,14.87,25.77,14.87,9.03,0,17.55-2.61,25.56-7.82,3.3-2.13,6.9-3.19,10.79-3.19,5.43,0,9.89,1.75,13.38,5.23,3.49,3.49,5.23,7.47,5.23,11.95,0,5.51-2.86,10.17-8.59,13.99-14.17,9.4-29.63,14.1-46.37,14.1Z"/><path class="cls-2" d="m824.69,321.39c-5.36,0-10.04-1.56-14.04-4.68-4-3.12-6-7.18-6-12.17v-111.8h-18.29c-5.51,0-10.06-1.69-13.66-5.07-3.6-3.38-5.4-7.42-5.4-12.12s1.8-8.72,5.4-12.06c3.6-3.34,8.15-5.01,13.66-5.01h76.67c5.51,0,10.06,1.67,13.66,5.01,3.6,3.34,5.4,7.36,5.4,12.06s-1.8,8.74-5.4,12.12c-3.6,3.38-8.15,5.07-13.66,5.07h-18.29v111.8c0,4.99-2.02,9.05-6.06,12.17-4.04,3.12-8.7,4.68-13.99,4.68Z"/><path class="cls-2" d="m955.72,321.5c-12.48,0-23.5-2.22-33.04-6.66-9.55-4.44-17.46-10.48-23.74-18.12-6.28-7.64-10.98-16.36-14.1-26.16-3.12-9.8-4.68-20.25-4.68-31.34s1.56-21.53,4.68-31.34c3.12-9.8,7.82-18.52,14.1-26.16,6.28-7.64,14.19-13.68,23.74-18.12,9.54-4.44,20.56-6.66,33.04-6.66s23.5,2.22,33.05,6.66c9.54,4.44,17.46,10.48,23.74,18.12,6.28,7.64,10.98,16.36,14.1,26.16,3.12,9.8,4.68,20.25,4.68,31.34s-1.56,21.53-4.68,31.34c-3.12,9.8-7.82,18.52-14.1,26.16-6.28,7.64-14.19,13.68-23.74,18.12-9.55,4.44-20.56,6.66-33.05,6.66Zm0-34.26c12.26,0,21.52-4.7,27.76-14.1,5.51-8.3,8.26-19.61,8.26-33.93s-2.75-25.7-8.26-33.93c-6.24-9.4-15.5-14.1-27.76-14.1s-21.63,4.7-27.87,14.1c-5.51,8.23-8.26,19.53-8.26,33.93s2.75,25.63,8.26,33.93c6.24,9.4,15.53,14.1,27.87,14.1Z"/><path class="cls-2" d="m1155.49,321.39c-6.68,0-11.93-2.5-15.75-7.49l-37.56-49.35h-2.2v39.99c0,4.99-2,9.05-6,12.17-4,3.12-8.65,4.68-13.93,4.68s-10.04-1.56-14.04-4.68c-4-3.12-6-7.18-6-12.17v-128.99c0-4.41,1.74-8.35,5.23-11.84,3.49-3.49,7.95-5.23,13.38-5.23h35.47c17.55,0,31.8,4.11,42.74,12.34,12.63,9.47,18.95,22.62,18.95,39.43,0,8.45-1.54,15.81-4.63,22.09-3.08,6.28-7.31,11.55-12.67,15.81-5.36,4.26-10.06,7.16-14.1,8.7l27.54,36.79c2.57,3.38,3.86,6.79,3.86,10.24,0,4.99-1.98,9.16-5.95,12.5-3.97,3.34-8.74,5.01-14.32,5.01Zm-55.52-91.09c9.62,0,17.37-.88,23.24-2.64,8.37-2.57,12.56-8.37,12.56-17.4,0-4.99-1.08-8.68-3.25-11.07-2.17-2.39-5-4.08-8.48-5.07-3.49-.99-7.29-1.49-11.4-1.49h-12.67v37.67Z"/></svg>