<svg width="17" height="14" viewBox="0 0 17 14" fill="none" xmlns="http://www.w3.org/2000/svg">
<path d="M14.6772 4.0835C14.6772 4.23975 14.6772 4.36475 14.6772 4.521C14.6772 8.86475 11.396 13.8335 5.36475 13.8335C3.48975 13.8335 1.771 13.3022 0.333496 12.3647C0.583496 12.396 0.833496 12.4272 1.11475 12.4272C2.646 12.4272 4.05225 11.896 5.17725 11.021C3.73975 10.9897 2.521 10.0522 2.11475 8.73975C2.3335 8.771 2.521 8.80225 2.73975 8.80225C3.021 8.80225 3.3335 8.73975 3.5835 8.67725C2.0835 8.36475 0.958496 7.05225 0.958496 5.4585V5.42725C1.396 5.67725 1.92725 5.80225 2.4585 5.8335C1.55225 5.23975 0.989746 4.23975 0.989746 3.11475C0.989746 2.48975 1.146 1.92725 1.42725 1.4585C3.05225 3.42725 5.48975 4.73975 8.2085 4.896C8.146 4.646 8.11475 4.396 8.11475 4.146C8.11475 2.3335 9.5835 0.864746 11.396 0.864746C12.3335 0.864746 13.1772 1.23975 13.8022 1.896C14.521 1.73975 15.2397 1.4585 15.8647 1.0835C15.6147 1.86475 15.1147 2.48975 14.4272 2.896C15.0835 2.8335 15.7397 2.646 16.3022 2.396C15.8647 3.05225 15.3022 3.61475 14.6772 4.0835Z" fill="#636183"/>
</svg>
